<svg xmlns="http://www.w3.org/2000/svg" data-name="Layer 1" width="958.395" height="637.798" viewBox="0 0 958.395 637.798" xmlns:xlink="http://www.w3.org/1999/xlink"><g id="b741a6a4-0c94-4a93-9cb5-e22b35789664" data-name="Group 58"><path id="ac0655ac-0c66-422f-907a-9e1a46083673-31" data-name="Path 438" d="M623.65548,742.47406a12.8,12.8,0,0,0,12.364-2.178c4.33-3.635,5.688-9.623,6.793-15.168l3.268-16.4-6.841,4.711c-4.92,3.388-9.95,6.884-13.356,11.79s-4.893,11.6-2.156,16.914" transform="translate(-120.8025 -131.101)" fill="#e6e6e6"/><path id="a9f6edd9-ffd5-4087-8bdb-dd611279c760-32" data-name="Path 439" d="M624.71151,763.47c-.861-6.273-1.747-12.627-1.143-18.967a29.8319,29.8319,0,0,1,5.752-15.64,26.01836,26.01836,0,0,1,6.675-6.049c.668-.421,1.282.637.617,1.056a24.73487,24.73487,0,0,0-9.784,11.805c-2.13,5.418-2.472,11.324-2.105,17.079.222,3.48.692,6.938,1.167,10.391a.634.634,0,0,1-.427.752.615.615,0,0,1-.752-.427Z" transform="translate(-120.8025 -131.101)" fill="#f2f2f2"/><path id="e5b8b1da-faf7-4c11-88ee-cabc9c313bed-33" data-name="Path 442" d="M630.9095,753.405a9.42507,9.42507,0,0,0,8.212,4.238c4.157-.2,7.623-3.1,10.743-5.853l9.228-8.147-6.107-.292c-4.392-.21-8.9-.406-13.08.948s-8.041,4.614-8.806,8.944" transform="translate(-120.8025 -131.101)" fill="#e6e6e6"/><path id="aa5166d1-e32d-46c4-8a32-79f8a6dcb289-34" data-name="Path 443" d="M622.27748,767.07605c4.145-7.335,8.953-15.486,17.544-18.092a19.57826,19.57826,0,0,1,7.379-.762c.783.068.588,1.275-.194,1.208a18.18817,18.18817,0,0,0-11.776,3.116,30.61028,30.61028,0,0,0-8.094,8.735c-1.34,2.041-2.541,4.169-3.742,6.294C623.01149,768.254,621.88948,767.764,622.27748,767.07605Z" transform="translate(-120.8025 -131.101)" fill="#f2f2f2"/></g><rect id="b0c98e14-1925-4936-b700-8389486832dc" data-name="Rectangle 62" x="0.395" y="19.35201" width="703.57599" height="333.85901" fill="#e6e6e6"/><rect id="b68ecde8-71e2-4e37-9915-29330f01abce" data-name="Rectangle 75" x="10.395" y="42.35201" width="683.33899" height="297.64499" fill="#fff"/><rect id="e8db4df2-8ee7-43dc-8bde-94a4824e02e5" data-name="Rectangle 80" width="703.57599" height="29.89" fill="#8860e5"/><g id="fb1c6b8a-0955-4e76-8223-9f33cff758ba" data-name="Group 80"><rect id="f182cb2d-075c-4cee-9ba1-dc8adfb68bff" data-name="Rectangle 111" x="56.50399" y="97.778" width="232.802" height="157.058" fill="#fff"/><path id="bcba5beb-716d-4631-a3f1-0727bd6657d3-35" data-name="Path 709" d="M410.68749,387.008h-234.408V228.344h234.408Zm-232.8-1.606h231.2V229.949h-231.2Z" transform="translate(-120.8025 -131.101)" fill="#3f3d56"/><path id="f932a065-06b7-4cdf-83d6-7c97cd1dbf89-36" data-name="Path 710" d="M197.11553,372.829h193.452v-131.1h-193.452Z" transform="translate(-120.8025 -131.101)" fill="#e6e6e6"/><g id="ecf65588-dc32-434f-852e-0af5885642fd" data-name="Group 55"><circle id="f52ba536-ee7f-40e0-9be2-a052cb8136e2" data-name="Ellipse 110" cx="131.266" cy="179.154" r="20.306" fill="#3f3d56"/><path id="b628c6f5-d4f4-4858-bd34-4c014918c956-37" data-name="Path 711" d="M315.74349,372.833h-99.613a2.02717,2.02717,0,0,1-.372-.03l47.112-81.6a3.3,3.3,0,0,1,5.742,0l31.618,54.763,1.515,2.62Z" transform="translate(-120.8025 -131.101)" fill="#8860e5"/><path id="f233adae-7d2f-4068-80e4-6d04a9f9b275-38" data-name="Path 712" d="M315.74349,372.83h-34.011l16.7-24.251,1.2-1.747.6-.874,1.514,2.62Z" transform="translate(-120.8025 -131.101)" opacity="0.2" style="isolation:isolate"/><path id="b7d33c45-0595-4de3-9083-860e8be6bfda-39" data-name="Path 713" d="M371.20754,372.831h-86.157l16.7-24.251,1.2-1.747,21.756-31.6a4.4,4.4,0,0,1,6.535-.391,3.92475,3.92475,0,0,1,.313.391Z" transform="translate(-120.8025 -131.101)" fill="#8860e5"/></g></g><g id="a30f63cb-bc78-4650-9940-a4284081fdce" data-name="Group 26"><path id="a98a124e-3787-4fab-85a3-89b8128d43e9-40" data-name="Path 45" d="M495.65148,307.677a39.649,39.649,0,0,1-39.666-39.632v-.288a39.666,39.666,0,1,1,39.671,39.92h-.005Zm0-78.5a38.914,38.914,0,0,0-38.826,38.6v.227a38.836,38.836,0,1,0,38.845-38.827h-.019Z" transform="translate(-120.8025 -131.101)" fill="#ccc"/><g id="f6bbc1ed-5643-42a3-82b5-87ed10503463" data-name="Group 27"><circle id="aabd211e-9945-4333-9755-fa4b890167be" data-name="Ellipse 7" cx="357.50199" cy="128.056" r="8.514" fill="#8860e5"/><path id="f271b168-7c91-4b60-9d98-0e3973010936-41" data-name="Path 63" d="M505.00249,285.393h-41.766a.84992.84992,0,0,1-.156-.013l19.755-34.215a1.383,1.383,0,0,1,2.407,0l13.257,22.964.635,1.1Z" transform="translate(-120.8025 -131.101)" fill="#cacaca"/><path id="bf105c06-a11f-4136-b86d-a4e60d739436-42" data-name="Path 65" d="M528.25749,285.393h-36.125l7-10.168.5-.733,9.122-13.251a1.846,1.846,0,0,1,2.742-.164,1.64257,1.64257,0,0,1,.131.164Z" transform="translate(-120.8025 -131.101)" fill="#cacaca"/></g></g><circle id="b25961f2-04b5-471b-8375-63fc1d048083" data-name="Ellipse 239" cx="26.13" cy="15.005" r="4.348" fill="#fff"/><circle id="e0ae52ce-30d2-47d7-9cd9-936448fa1255" data-name="Ellipse 240" cx="38.62999" cy="15.005" r="4.348" fill="#fff"/><circle id="a1452965-a3bf-422b-8d64-ee8b2f8e7426" data-name="Ellipse 241" cx="51.12999" cy="15.005" r="4.348" fill="#fff"/><g id="ab45d53e-b1f0-4c03-af47-648f4d456c24" data-name="Group 81"><path id="acc17b87-6e67-425b-8932-43641ebcc687-43" data-name="Path 45-2" d="M605.99251,307.677a39.649,39.649,0,0,1-39.666-39.632v-.288a39.666,39.666,0,1,1,39.671,39.92h-.005Zm0-78.5a38.914,38.914,0,0,0-38.826,38.6v.227a38.836,38.836,0,1,0,38.845-38.827h-.019Z" transform="translate(-120.8025 -131.101)" fill="#ccc"/><g id="a2cc8add-6efd-4920-b0ce-6d73dd962d83" data-name="Group 27-2"><circle id="aa9a4c61-6b20-4132-87eb-1689f68544dc" data-name="Ellipse 7-2" cx="467.84302" cy="128.056" r="8.514" fill="#8860e5"/><path id="bec16132-452e-4535-9c04-23459bf5a636-44" data-name="Path 63-2" d="M615.34352,285.393h-41.766a.84981.84981,0,0,1-.156-.013l19.755-34.215a1.383,1.383,0,0,1,2.407,0l13.257,22.964.635,1.1Z" transform="translate(-120.8025 -131.101)" fill="#cacaca"/><path id="f6bc28e7-d77e-4ad9-883f-0ef370cdf6a5-45" data-name="Path 65-2" d="M638.59853,285.393h-36.125l7-10.168.5-.733,9.122-13.251a1.846,1.846,0,0,1,2.742-.164,1.64257,1.64257,0,0,1,.131.164Z" transform="translate(-120.8025 -131.101)" fill="#cacaca"/></g></g><g id="b008f90a-485c-47d7-9740-68c5509ab4de" data-name="Group 82"><path id="bfe9e607-b29d-4804-aeb1-3628394a30ae-46" data-name="Path 45-3" d="M716.33449,307.677a39.649,39.649,0,0,1-39.666-39.632v-.288a39.666,39.666,0,1,1,39.671,39.92h-.005Zm0-78.5a38.914,38.914,0,0,0-38.826,38.6v.227a38.836,38.836,0,1,0,38.845-38.827h-.019Z" transform="translate(-120.8025 -131.101)" fill="#ccc"/><g id="e28c6b75-f185-4232-8320-5d44236ab799" data-name="Group 27-3"><circle id="e90051d6-a94a-48d9-a554-c10510884661" data-name="Ellipse 7-3" cx="578.185" cy="128.056" r="8.514" fill="#8860e5"/><path id="a473ea89-341a-4b2a-8eda-942ae9a78b66-47" data-name="Path 63-3" d="M725.6855,285.393h-41.766a.84981.84981,0,0,1-.156-.013l19.755-34.215a1.383,1.383,0,0,1,2.407,0l13.257,22.964.635,1.1Z" transform="translate(-120.8025 -131.101)" fill="#cacaca"/><path id="f0f50ed7-15ea-465e-b400-fbead83840a6-48" data-name="Path 65-3" d="M748.94051,285.393h-36.125l7-10.168.5-.733,9.122-13.251a1.846,1.846,0,0,1,2.742-.164,1.64257,1.64257,0,0,1,.131.164Z" transform="translate(-120.8025 -131.101)" fill="#cacaca"/></g></g><path id="e35adc19-8da5-4f63-beaa-9be31fb3c7a8-49" data-name="Path 139" d="M459.95452,331.441a3.969,3.969,0,0,0-.0138,7.938H647.06249a3.969,3.969,0,0,0,0-7.938Z" transform="translate(-120.8025 -131.101)" fill="#e6e6e6"/><path id="a02980ad-eb35-4ed6-8fb0-70f7a7373981-50" data-name="Path 140" d="M459.95452,355.255a3.969,3.969,0,0,0-.0138,7.938h80.5268a3.969,3.969,0,1,0,.01379-7.938H459.95452Z" transform="translate(-120.8025 -131.101)" fill="#e6e6e6"/><path id="ecd4f684-9972-404e-a6cb-1953f0a217bf-51" data-name="Path 1285" d="M461.33953,379.069c-2.957,0-5.354,1.777-5.354,3.969s2.4,3.969,5.354,3.969H569.94847c2.957,0,5.354-1.777,5.354-3.969s-2.4-3.969-5.354-3.969Z" transform="translate(-120.8025 -131.101)" fill="#e6e6e6"/><polygon points="799.781 625.661 787.521 625.66 781.689 578.372 799.783 578.373 799.781 625.661" fill="#9e616a"/><path d="M923.7099,768.64587l-39.53077-.00146v-.5a15.38731,15.38731,0,0,1,15.38648-15.38623h.001l24.144.001Z" transform="translate(-120.8025 -131.101)" fill="#2f2e41"/><polygon points="898.781 625.661 886.521 625.66 880.689 578.372 898.783 578.373 898.781 625.661" fill="#9e616a"/><path d="M1022.7099,768.64587l-39.53077-.00146v-.5a15.38731,15.38731,0,0,1,15.38648-15.38623h.001l24.144.001Z" transform="translate(-120.8025 -131.101)" fill="#2f2e41"/><path id="bd8e0d8e-f1dc-46fc-a16e-6b51c501344d-52" data-name="Path 1272" d="M987.74016,383.036l28.93033-5.44s28.125,70.528,18.606,87.4-39.375,48.461-39.375,48.461l-5.625-16.009,22.46371-52.412Z" transform="translate(-120.8025 -131.101)" fill="#cacaca"/><path id="bc0f5db7-7c65-4758-8f9a-b94e17715378-53" data-name="Path 1276" d="M1006.00648,514.293l6.2,2.163s1.586,14.711-.145,19.9-5.625,42.836-3.462,50.624.865,20.336.865,20.336,12.981,42.4,10.385,51.49-2.163,22.067.433,28.557,4.76,9.086,3.461,14.279-3.894,7.788-1.3,12.115,7.788,5.625,5.192,9.519-5.192,6.923-4.327,9.519-22.932,7.356-25.1,3.461c0,0,6.923-6.058,0-9.519s-4.76-16.442-4.76-16.442-12.115-49.759-11.683-53.653-19.038-64.47-19.038-64.47-28.557,86.537-30.288,90.432,2.163,13.413,0,16.009.865,9.086-2.163,11.683,5.192,12.115,0,15.577-7.788,14.279-7.356,16.442-21.634-.433-21.634-3.461.433-5.625-1.731-10.817-3.461-8.654-1.731-10.385,3.029-3.894,1.3-9.952,2.6-24.663,1.3-28.125-.865-26.827-.865-26.827,4.327-34.182,3.029-39.807,0-6.923.433-9.086,3.029-25.529,4.76-28.99,3.894-62.74,13.846-65.768S1006.00648,514.293,1006.00648,514.293Z" transform="translate(-120.8025 -131.101)" fill="#2f2e41"/><circle id="b1ba1493-ae17-4ace-be98-6d6e229f538f" data-name="Ellipse 246" cx="826.79101" cy="176.36701" r="26.394" fill="#a0616a"/><path id="a6d13db0-dfca-4cfc-867a-7dd0bfa1bbdf-54" data-name="Path 1280" d="M980.9105,338.623s-26.827-9.952-36.346,5.625c0,0-30.288,14.279-32.452,22.932s18.173,73.557,18.173,73.557,0,53.653-4.327,59.278-12.54791,11.683-6.92193,12.981,93.893,10.817,93.461,5.192-6.058-10.384,0-13.846,8.99121-7.47807,4.76-18.606c-18.51732-48.7,1.413-104.278,1.413-104.278s-6.49-11.683-7.788-12.981S980.9105,338.623,980.9105,338.623Z" transform="translate(-120.8025 -131.101)" fill="#cacaca"/><path id="fc1526a9-be58-42ce-ba8b-82029fac2eff-55" data-name="Path 1282" d="M960.2155,312.392c-1.528-3.062-3.816-6.594-7.233-6.408-1.728.094-3.218,1.169-4.758,1.959s-6.342-4.688-8.185-6.424c-2.011-1.895-6.056-.837-7.354-3.276-.693-1.3-.133-2.919-.435-4.363a15.7122,15.7122,0,0,1-6.229-.724c-1.951-.791-3.641-2.623-3.586-4.728a5.40691,5.40691,0,0,1,1.931-3.718c2.657-2.416,6.5-2.879,9.778-4.344,2.609-1.166,4.878-2.983,7.442-4.244,4.413-2.171,9.5-2.592,14.409-2.217,7.436.568,14.955,3.036,20.347,8.187s8.246,13.279,5.92,20.364c-1.318,4.015-4.11,7.39-5.669,11.317-.955,2.688-5.193,11.349-5.945,10.725-1.641-1.36-4.028-.9-5.551-2.158C962.8405,320.478,961.53648,315.049,960.2155,312.392Z" transform="translate(-120.8025 -131.101)" fill="#2f2e41"/><path d="M915.48918,558.99242a10.05576,10.05576,0,0,0-2.0992-15.27576l8.02728-34.82158-17.40262,6.4794-4.95483,32.0738a10.11027,10.11027,0,0,0,16.42937,11.54414Z" transform="translate(-120.8025 -131.101)" fill="#9e616a"/><path id="f77a2617-627e-47e3-a6d2-402e308b0cf1-56" data-name="Path 1283" d="M922.0645,364.151l-6.923,4.327s-11.25,67.932-9.952,77.451-5.192,63.172-3.029,67.5,3.029,5.192,3.029,7.788-6.058,12.115-2.163,13.846,18.173,4.76,18.173,0-2.6-11.25,2.163-14.279,8.221-22.5,8.221-22.5,2.163-19.9,4.327-23.8,5.192-18.173,5.192-24.23,5.192-30.721,2.163-43.269S939.37248,360.689,922.0645,364.151Z" transform="translate(-120.8025 -131.101)" opacity="0.1" style="isolation:isolate"/><path id="bf6fb651-5e0b-44be-8203-4c088557aadc-57" data-name="Path 1284" d="M919.03647,362.852l-6.923,4.332s-11.25,67.932-9.952,77.451-5.192,63.172-3.029,67.5,3.029,5.192,3.029,7.788-6.058,12.115-2.163,13.846,18.173,4.76,18.173,0-2.6-11.25,2.163-14.279,8.221-22.5,8.221-22.5,2.163-19.9,4.327-23.8,5.192-18.173,5.192-24.23,5.192-30.721,2.163-43.269S936.34348,359.391,919.03647,362.852Z" transform="translate(-120.8025 -131.101)" fill="#cacaca"/><path id="ea4adc37-3158-43e2-866b-856bd1f4f3c2-58" data-name="Path 944" d="M1078.48149,768.899h-532.183c-.4,0-.716-.448-.716-1s.321-1,.716-1h532.183c.4,0,.716.448.716,1S1078.87651,768.899,1078.48149,768.899Z" transform="translate(-120.8025 -131.101)" fill="#cacaca"/></svg>